<svg height="512" width="512" xmlns="http://www.w3.org/2000/svg">
  <linearGradient id="a" gradientUnits="userSpaceOnUse" x1="256" x2="256" y1="512" y2="0">
    <stop offset="0" stop-color="#5558ff"/>
    <stop offset="1" stop-color="#00c0ff"/>
  </linearGradient>
  <path d="M499.3 308.7a15 15 0 00-18 1.6A194.3 194.3 0 01350.6 361c-107.5 0-195-87.5-195-195 0-48.2 18-94.6 50.7-130.7a15 15 0 00-15.2-24.5A255 255 0 005.6 256c0 141.2 114.4 256 255 256 117.1 0 215-79.9 245.2-186.5a15 15 0 00-6.5-16.8zM260.6 482c-124 0-225-101.4-225-226 0-83.2 46.6-158.7 117.6-197.5A223.3 223.3 0 00125.6 166c0 124 101 225 225 225 37.9 0 74.8-9.6 107.6-27.7A225.8 225.8 0 01260.6 482zm90-392a45 45 0 0145 45 15 15 0 0030 0 45 45 0 0145-45 15 15 0 000-30 45 45 0 01-45-45 15 15 0 00-30 0 45 45 0 01-45 45 15 15 0 000 30zm60-30a75.6 75.6 0 0015 15 75.6 75.6 0 00-15 15 75.6 75.6 0 00-15-15 75.6 75.6 0 0015-15zm-150 181a45 45 0 0145 45 15 15 0 0030 0 45 45 0 0145-45 15 15 0 000-30 45 45 0 01-45-45 15 15 0 00-30 0 45 45 0 01-45 45 15 15 0 000 30zm60-30a75.6 75.6 0 0015 15 75.6 75.6 0 00-15 15 75.6 75.6 0 00-15-15 75.6 75.6 0 0015-15z" fill="url(#a)"/>
</svg>