<svg height="512" width="512" xmlns="http://www.w3.org/2000/svg">
  <linearGradient id="a" gradientUnits="userSpaceOnUse" x1="256" x2="256" y1="512" y2="0">
    <stop offset="0" stop-color="#fd5900"/>
    <stop offset="1" stop-color="#ffde00"/>
  </linearGradient>
  <path d="M61 256c0-8.284-6.716-15-15-15H15c-8.284 0-15 6.716-15 15s6.716 15 15 15h31c8.284 0 15-6.716 15-15zm436-15h-31c-8.284 0-15 6.716-15 15s6.716 15 15 15h31c8.284 0 15-6.716 15-15s-6.716-15-15-15zM256 61c8.284 0 15-6.716 15-15V15c0-8.284-6.716-15-15-15s-15 6.716-15 15v31c0 8.284 6.716 15 15 15zm0 390c-8.284 0-15 6.716-15 15v31c0 8.284 6.716 15 15 15s15-6.716 15-15v-31c0-8.284-6.716-15-15-15zM96.901 393.886l-21.213 21.213c-5.858 5.858-5.858 15.355 0 21.213 5.857 5.857 15.355 5.858 21.213 0l21.213-21.213c5.858-5.858 5.858-15.355 0-21.213-5.857-5.859-15.355-5.859-21.213 0zm318.198-275.772l21.213-21.213c5.858-5.858 5.858-15.355 0-21.213-5.857-5.858-15.355-5.858-21.213 0l-21.213 21.213c-5.858 5.858-5.858 15.355 0 21.213 5.856 5.858 15.355 5.859 21.213 0zm-318.198 0c5.857 5.857 15.355 5.858 21.213 0s5.858-15.355 0-21.213L96.901 75.688c-5.857-5.858-15.355-5.858-21.213 0s-5.858 15.355 0 21.213zm318.198 275.772c-5.857-5.858-15.355-5.858-21.213 0s-5.858 15.355 0 21.213l21.213 21.213c5.857 5.857 15.355 5.858 21.213 0s5.858-15.355 0-21.213zm-233.722 42.271c-7.651-3.171-16.428.464-19.598 8.118l-11.481 27.716c-3.17 7.653.464 16.428 8.118 19.598 7.684 3.184 16.441-.495 19.598-8.118l11.481-27.716c3.17-7.653-.464-16.428-8.118-19.598zM330.623 75.843c7.669 3.178 16.435-.481 19.598-8.118l11.481-27.716c3.17-7.653-.464-16.428-8.118-19.598-7.653-3.172-16.428.463-19.598 8.118l-11.481 27.716c-3.17 7.653.464 16.428 8.118 19.598zM28.529 178.014l27.716 11.481c7.684 3.183 16.441-.495 19.598-8.118 3.17-7.653-.464-16.428-8.118-19.598l-27.716-11.481c-7.654-3.172-16.428.463-19.598 8.118-3.17 7.653.464 16.427 8.118 19.598zm454.942 155.972l-27.716-11.481c-7.655-3.17-16.428.463-19.598 8.118-3.17 7.653.464 16.428 8.118 19.598l27.716 11.481c7.684 3.184 16.441-.495 19.598-8.118 3.17-7.653-.464-16.427-8.118-19.598zm-133.25 110.288c-3.17-7.654-11.944-11.289-19.598-8.118-7.654 3.17-11.288 11.945-8.118 19.598l11.481 27.716c3.165 7.641 11.934 11.294 19.598 8.118 7.654-3.17 11.288-11.945 8.118-19.598zM161.779 67.726c3.165 7.641 11.934 11.294 19.598 8.118 7.654-3.17 11.288-11.945 8.118-19.598L178.014 28.53c-3.17-7.654-11.944-11.289-19.598-8.118-7.654 3.17-11.288 11.945-8.118 19.598zm274.378 113.651c3.165 7.641 11.934 11.294 19.598 8.118l27.716-11.481c7.654-3.17 11.288-11.945 8.118-19.598-3.169-7.654-11.943-11.289-19.598-8.118l-27.716 11.481c-7.654 3.17-11.289 11.945-8.118 19.598zM75.843 330.623c-3.169-7.654-11.944-11.289-19.598-8.118l-27.716 11.481c-7.654 3.17-11.288 11.945-8.118 19.598 3.165 7.641 11.934 11.294 19.598 8.118l27.716-11.481c7.654-3.17 11.289-11.945 8.118-19.598zM256 91c-90.981 0-165 74.019-165 165s74.019 165 165 165 165-74.019 165-165S346.981 91 256 91zm0 300c-74.439 0-135-60.561-135-135s60.561-135 135-135 135 60.561 135 135-60.561 135-135 135z" fill="url(#a)"/>
</svg>